<svg width="722" height="722" viewBox="0 0 722 722" fill="none" xmlns="http://www.w3.org/2000/svg">
<circle cx="361.365" cy="361.365" r="331.564" transform="rotate(1.49816 361.365 361.365)" fill="url(#paint0_radial_5_33)" stroke="white" stroke-width="40"/>
<mask id="path-2-outside-1_5_33" maskUnits="userSpaceOnUse" x="157.003" y="7.03288" width="550.083" height="681.71" fill="black">
<rect fill="white" x="157.003" y="7.03288" width="550.083" height="681.71"/>
<path fill-rule="evenodd" clip-rule="evenodd" d="M347.762 359.105L360.284 33.8943L351.805 33.5678L339.359 356.781L185.195 638.111L192.639 642.184L343.205 367.421L672.88 380.116L673.207 371.636L347.761 359.105L347.761 359.105L347.762 359.105Z"/>
</mask>
<path d="M360.284 33.8943L380.269 34.6638L381.039 14.6786L361.054 13.9091L360.284 33.8943ZM347.762 359.105L346.992 379.09L366.977 379.86L367.747 359.874L347.762 359.105ZM351.805 33.5678L352.574 13.5826L332.589 12.8131L331.82 32.7983L351.805 33.5678ZM339.359 356.781L356.899 366.392L359.163 362.259L359.345 357.55L339.359 356.781ZM185.195 638.111L167.656 628.5L158.039 646.049L175.594 655.656L185.195 638.111ZM192.639 642.184L183.038 659.729L200.572 669.325L210.178 651.796L192.639 642.184ZM343.205 367.421L343.974 347.436L331.611 346.96L325.665 357.81L343.205 367.421ZM672.88 380.116L672.11 400.101L692.096 400.87L692.865 380.885L672.88 380.116ZM673.207 371.636L693.192 372.406L693.961 352.421L673.976 351.651L673.207 371.636ZM347.761 359.105L338.136 376.636L342.274 378.909L346.992 379.09L347.761 359.105ZM347.761 359.105L348.531 339.12L338.135 376.636L347.761 359.105ZM340.299 33.1248L327.776 358.335L367.747 359.874L380.269 34.6638L340.299 33.1248ZM351.035 53.553L359.514 53.8795L361.054 13.9091L352.574 13.5826L351.035 53.553ZM359.345 357.55L371.79 34.3373L331.82 32.7983L319.374 356.011L359.345 357.55ZM202.734 647.722L356.899 366.392L321.82 347.17L167.656 628.5L202.734 647.722ZM202.24 624.64L194.796 620.566L175.594 655.656L183.038 659.729L202.24 624.64ZM325.665 357.81L175.1 632.573L210.178 651.796L360.744 377.033L325.665 357.81ZM673.65 360.13L343.974 347.436L342.435 387.407L672.11 400.101L673.65 360.13ZM653.221 370.867L652.895 379.346L692.865 380.885L693.192 372.406L653.221 370.867ZM346.992 379.09L672.437 391.622L673.976 351.651L348.531 339.12L346.992 379.09ZM338.135 376.636L338.136 376.636L357.387 341.574L357.387 341.574L338.135 376.636ZM348.531 339.12L348.531 339.12L346.991 379.09L346.992 379.09L348.531 339.12Z" fill="white" mask="url(#path-2-outside-1_5_33)"/>
<path d="M259.701 265.704L297.324 337.458L262.985 355.463L225.362 283.71L98.3115 205.592L128.678 189.67C131.668 188.102 134.398 187.596 136.868 188.153C139.423 188.664 141.881 189.717 144.241 191.311L210.518 235.461C214.409 238.104 217.931 240.668 221.085 243.152C224.325 245.592 227.394 248.122 230.291 250.74C229.7 246.912 229.279 242.994 229.029 238.987C228.779 234.98 228.631 230.647 228.584 225.988L229.833 146.432C229.787 144.06 230.278 141.569 231.306 138.961C232.335 136.353 234.301 134.287 237.205 132.764L267.7 116.774L259.701 265.704Z" fill="white"/>
<path d="M460.35 255.891C465.101 257.851 469.48 258.982 473.487 259.283C477.521 259.52 481.144 259.024 484.355 257.795C487.658 256.528 490.536 254.56 492.989 251.892C495.469 249.159 497.517 245.834 499.132 241.918C500.668 238.195 501.481 234.586 501.571 231.092C501.66 227.598 500.986 224.315 499.549 221.243C498.112 218.172 495.854 215.362 492.773 212.813C489.719 210.201 485.785 207.902 480.97 205.915L461.615 197.929L440.995 247.905L460.35 255.891ZM489.234 185.886C498.542 189.727 506.149 194.142 512.053 199.133C517.957 204.123 522.316 209.49 525.13 215.233C527.943 220.977 529.284 227.014 529.151 233.344C529.082 239.701 527.71 246.122 525.035 252.606C522.254 259.346 518.574 265.077 513.997 269.8C509.446 274.457 504.089 277.882 497.927 280.072C491.764 282.262 484.817 283.077 477.086 282.516C469.418 281.982 461.058 279.847 452.007 276.113L432.652 268.127L412.43 317.14L386.527 306.453L443.976 167.213L489.234 185.886Z" fill="white"/>
<path d="M434.849 431.228L399.393 444.469L436.596 544.087L414.72 552.256L377.518 452.639L342.063 465.88L335.351 447.908L428.137 413.257L434.849 431.228Z" fill="white"/>
<defs>
<radialGradient id="paint0_radial_5_33" cx="0" cy="0" r="1" gradientUnits="userSpaceOnUse" gradientTransform="translate(361.365 361.365) rotate(-98.8847) scale(386.969)">
<stop stop-color="#2C3E50"/>
<stop offset="1" stop-color="#2C3E50" stop-opacity="0"/>
</radialGradient>
</defs>
</svg>
